<?xml version="1.0" encoding="UTF-8"?>
<svg version="1.1" xmlns="http://www.w3.org/2000/svg" width="500" height="500">
<path d="M0 0 C2.00871874 -0.00389385 4.01743667 -0.00822992 6.02615356 -0.01298523 C10.21342658 -0.0204066 14.40061517 -0.02018381 18.58789062 -0.01489258 C23.94772361 -0.00907145 29.30721399 -0.02611227 34.66699028 -0.04923725 C38.8054302 -0.06397057 42.94378719 -0.06484738 47.08224869 -0.06172752 C49.05896819 -0.06223989 51.03569244 -0.06746164 53.01238632 -0.07753944 C55.77134365 -0.08989295 58.52962747 -0.08312119 61.28857422 -0.0715332 C62.09906723 -0.07917694 62.90956024 -0.08682068 63.74461365 -0.09469604 C70.04807887 -0.03625721 74.03300368 1.61180459 79.0078125 5.61328125 C82.27742312 9.81404312 81.74603742 14.92541118 81.55859375 20.0078125 C80.86654309 25.36009422 79.10440628 27.51402439 75.1328125 31.11328125 C70.71841492 33.73432982 66.17916999 33.41666417 61.17749023 33.35083008 C60.37837219 33.34455093 59.57925415 33.33827179 58.75592041 33.33180237 C57.02025603 33.31796037 55.28460735 33.30202659 53.54897881 33.28425026 C50.78363626 33.25749545 48.01837538 33.2396925 45.25294495 33.22477722 C37.38926519 33.18218594 29.52574077 33.13528473 21.66235352 33.05395508 C16.84663186 33.00480628 12.0311374 32.97625647 7.21519661 32.9602108 C5.39710068 32.95044563 3.57902599 32.93344458 1.76107597 32.90842628 C-21.12585585 32.60094314 -42.43993653 36.77377701 -60.51171875 51.48046875 C-62.8671875 53.30078125 -62.8671875 53.30078125 -65.8671875 54.30078125 C-65.8671875 54.96078125 -65.8671875 55.62078125 -65.8671875 56.30078125 C-66.95145685 57.28510398 -68.08784164 58.21216146 -69.2421875 59.11328125 C-86.16946383 73.61381531 -96.18384004 97.00559425 -98.62109375 118.890625 C-100.63830003 146.84334053 -93.48457147 173.47127425 -75.04907227 194.90600586 C-71.30622177 199.06582824 -67.18671958 202.53060787 -62.66796875 205.8125 C-62.07371094 206.30363281 -61.47945313 206.79476562 -60.8671875 207.30078125 C-60.8671875 207.96078125 -60.8671875 208.62078125 -60.8671875 209.30078125 C-60.196875 209.55085937 -59.5265625 209.8009375 -58.8359375 210.05859375 C-55.93825403 211.27104552 -53.18032759 212.66385816 -50.39819336 214.11889648 C-37.65802042 220.74856455 -25.46248566 224.4522319 -11.02954102 224.44262695 C-9.74518158 224.44783859 -9.74518158 224.44783859 -8.43487549 224.45315552 C-6.58631086 224.46047372 -4.73773766 224.46583992 -2.88916206 224.46944618 C0.0414975 224.47665497 2.97199381 224.49235282 5.90260315 224.51078796 C14.23135185 224.56306079 22.56000663 224.61123792 30.88891602 224.62670898 C35.99352732 224.63680977 41.09771998 224.66618014 46.2021656 224.70802879 C48.14090873 224.72030596 50.07971103 224.72546608 52.01849174 224.72323036 C54.73470428 224.72086798 57.44972106 224.74311197 60.16577148 224.77075195 C60.95822769 224.76415054 61.7506839 224.75754913 62.56715393 224.75074768 C69.41666846 224.86465017 74.70126777 226.93002513 79.6328125 231.73828125 C81.94209909 237.2228369 81.8635398 242.44005003 81.1328125 248.30078125 C78.85843872 253.37438431 76.24911234 255.27557923 71.1328125 257.30078125 C67.91052221 258.27337844 64.88225231 258.49285779 61.5234375 258.6171875 C60.39284912 258.65924316 59.26226074 258.70129883 58.09741211 258.74462891 C56.87159424 258.78378418 55.64577637 258.82293945 54.3828125 258.86328125 C52.45997437 258.92588135 52.45997437 258.92588135 50.49829102 258.98974609 C35.70791317 259.44209471 20.92803582 259.45794121 6.1328125 259.30078125 C4.87952148 259.29353027 3.62623047 259.2862793 2.33496094 259.27880859 C-17.89972037 259.12168222 -36.06555126 256.81921212 -54.640625 248.53515625 C-59.81846741 246.55428676 -63.18501324 245.62313682 -68.4453125 247.7421875 C-69.67980496 248.43066085 -70.90356913 249.13864504 -72.1171875 249.86328125 C-72.77122559 250.23316162 -73.42526367 250.60304199 -74.09912109 250.98413086 C-75.41820042 251.73085569 -76.73325018 252.48474855 -78.04394531 253.24609375 C-80.50068171 254.66723746 -82.99455495 256.01558509 -85.4921875 257.36328125 C-88.42942511 258.96621152 -91.36333659 260.57459671 -94.29296875 262.19140625 C-95.4634432 262.83221113 -96.63401464 263.4728389 -97.8046875 264.11328125 C-98.86558594 264.69722656 -99.92648438 265.28117187 -101.01953125 265.8828125 C-105.74512623 268.23588655 -109.57138932 268.66600871 -114.8671875 268.30078125 C-118.70428973 266.97255356 -120.41238587 265.95266359 -122.7421875 262.61328125 C-124.63760456 257.03233102 -124.59488671 252.40252624 -122.21484375 247.06640625 C-121.46749874 245.5540098 -120.70499642 244.04903479 -119.9296875 242.55078125 C-119.10914107 240.88747562 -118.29018472 239.22338481 -117.47265625 237.55859375 C-117.04645996 236.70168945 -116.62026367 235.84478516 -116.18115234 234.96191406 C-113.96825173 230.48019413 -111.84015372 225.96224102 -109.7421875 221.42578125 C-109.34008057 220.58821289 -108.93797363 219.75064453 -108.52368164 218.88769531 C-106.43646499 214.38957763 -106.43646499 214.38957763 -105.90234375 209.53125 C-107.07903083 206.81105437 -108.57027493 204.79890157 -110.4296875 202.48828125 C-126.08766541 181.58291647 -132.72218875 154.76940833 -132.4296875 128.98828125 C-132.42575989 128.1860614 -132.42183228 127.38384155 -132.41778564 126.55731201 C-132.32871549 113.60676923 -131.16577357 101.60569795 -126.8671875 89.30078125 C-126.53025879 88.28781982 -126.53025879 88.28781982 -126.18652344 87.25439453 C-120.9038427 71.65626079 -112.27614116 57.95007262 -101.8671875 45.30078125 C-101.42568359 44.74036133 -100.98417969 44.17994141 -100.52929688 43.60253906 C-99.35353452 42.13154502 -98.11464017 40.71149115 -96.8671875 39.30078125 C-96.2071875 39.30078125 -95.5471875 39.30078125 -94.8671875 39.30078125 C-94.8671875 38.64078125 -94.8671875 37.98078125 -94.8671875 37.30078125 C-94.2071875 37.30078125 -93.5471875 37.30078125 -92.8671875 37.30078125 C-92.8671875 36.64078125 -92.8671875 35.98078125 -92.8671875 35.30078125 C-92.2071875 35.30078125 -91.5471875 35.30078125 -90.8671875 35.30078125 C-90.8671875 34.64078125 -90.8671875 33.98078125 -90.8671875 33.30078125 C-88.80138945 31.48227581 -86.73340492 29.78738268 -84.5546875 28.11328125 C-83.91313721 27.61787842 -83.27158691 27.12247559 -82.6105957 26.61206055 C-57.51019639 7.43931557 -31.26110505 -0.02534463 0 0 Z " fill="#050505" transform="translate(254.8671875,122.69921875)"/>
<path d="M0 0 C3.30316757 1.65158378 6.10883377 3.71781153 9 6 C10.485 6.99 10.485 6.99 12 8 C12 8.66 12 9.32 12 10 C12.66 10 13.32 10 14 10 C14 10.66 14 11.32 14 12 C14.59039062 12.26425781 15.18078125 12.52851563 15.7890625 12.80078125 C21.71854261 16.01694803 27.08077948 22.55903086 31 28 C31 28.66 31 29.32 31 30 C31.66 30 32.32 30 33 30 C35.59386197 33.14204929 37.7600427 36.59998061 40 40 C40.49886719 40.73347656 40.99773437 41.46695313 41.51171875 42.22265625 C52.27838646 58.94786335 59.06007818 79.34982081 59.23828125 99.203125 C59.246353 100.08039246 59.25442474 100.95765991 59.26274109 101.86151123 C59.27652053 103.71722478 59.2872699 105.57296303 59.29516602 107.42871094 C59.30659048 109.28816393 59.32688746 111.14758668 59.35668945 113.00683594 C59.91473107 147.93587676 48.05008269 177.52036694 24 203 C23.30390625 203.76054687 22.6078125 204.52109375 21.890625 205.3046875 C15.82052724 211.70708989 6.09483174 221.42869332 -3.0859375 222.16796875 C-12.45321666 222.24789434 -12.45321666 222.24789434 -16.59765625 218.58984375 C-19.98420762 215.07519587 -21.97250868 211.98242642 -22.23046875 207.04296875 C-21.45813326 200.19667281 -16.9994201 195.34732183 -12 191 C-11.34 191 -10.68 191 -10 191 C-10 190.34 -10 189.68 -10 189 C-8.5390625 187.4921875 -8.5390625 187.4921875 -6.625 185.875 C-5.99851562 185.33617187 -5.37203125 184.79734375 -4.7265625 184.2421875 C-3 183 -3 183 -1 183 C-1 182.34 -1 181.68 -1 181 C0.12525155 179.97350723 1.30282645 179.00412304 2.5 178.0625 C16.79303743 165.83653324 25.43266426 146.40303955 28 128 C28.32600622 122.99992863 28.38927373 118.00902105 28.375 113 C28.37478851 112.31602142 28.37457703 111.63204285 28.37435913 110.92733765 C28.29528449 85.27754836 20.71289525 64.05852858 2.55175781 45.53369141 C-0.14794508 42.86541992 -2.94433974 40.305927 -5.75 37.75 C-19.72317152 24.97412026 -19.72317152 24.97412026 -20.9140625 16.3203125 C-21.09161789 11.52631702 -19.48181504 8.4293655 -16.625 4.75 C-11.76226927 -0.34428933 -6.86066925 -1.18356575 0 0 Z " fill="#060606" transform="translate(372,141)"/>
<path d="M0 0 C17.1756116 8.44854408 27.49853202 25.35757767 34.30859375 42.54296875 C39.68977051 59.33072443 38.60604911 78.62828637 32.98046875 95.19140625 C32.70332031 96.10535156 32.42617188 97.01929688 32.140625 97.9609375 C29.60350054 105.3852418 24.77878314 111.10551329 19.98046875 117.19140625 C19.32046875 118.18140625 18.66046875 119.17140625 17.98046875 120.19140625 C17.32046875 120.19140625 16.66046875 120.19140625 15.98046875 120.19140625 C15.98046875 120.85140625 15.98046875 121.51140625 15.98046875 122.19140625 C13.78533337 123.94989088 11.59374127 125.58247442 9.29296875 127.19140625 C8.35420898 127.86816406 8.35420898 127.86816406 7.39648438 128.55859375 C0.6758778 133.31579798 -4.72460696 135.09184211 -13.01953125 134.19140625 C-16.70576136 132.57868058 -17.77308125 131.56108125 -20.01953125 128.19140625 C-21.24147525 122.89631558 -21.08797674 119.22762135 -19.01953125 114.19140625 C-15.99565232 109.86507344 -12.36067322 106.20608817 -8.01953125 103.19140625 C-7.35953125 103.19140625 -6.69953125 103.19140625 -6.01953125 103.19140625 C-6.01953125 102.53140625 -6.01953125 101.87140625 -6.01953125 101.19140625 C-4.8574071 100.0292821 -3.69265693 98.86967887 -2.515625 97.72265625 C6.71857559 88.271464 9.62488502 78.234069 9.5234375 65.25512695 C9.25152477 58.12520699 7.56156746 52.40178533 3.98046875 46.19140625 C3.51125 45.37285156 3.04203125 44.55429688 2.55859375 43.7109375 C-1.46608321 37.25198012 -6.34080109 31.88114747 -12.70703125 27.69140625 C-16.37212323 25.14070034 -18.64151104 22.48224763 -20.01953125 18.19140625 C-20.65097873 13.01193833 -20.65896202 8.78401579 -18.01953125 4.19140625 C-17.35953125 4.19140625 -16.69953125 4.19140625 -16.01953125 4.19140625 C-16.01953125 3.53140625 -16.01953125 2.87140625 -16.01953125 2.19140625 C-10.16556679 -1.75105961 -6.87112495 -2.75110806 0 0 Z " fill="#070707" transform="translate(346.01953125,185.80859375)"/>
<path d="M0 0 C5.39383443 3.14724673 8.65073668 7.10846005 10.64453125 13.08984375 C11.15618305 19.35757835 11.33272397 24.74832326 7.64453125 30.08984375 C2.77630134 35.44489665 -0.66668421 37.5604025 -7.79296875 38.109375 C-12.42930213 38.07403709 -15.70443494 36.67224336 -19.046875 33.46875 C-24.1463497 27.75488075 -25.81969975 23.61370229 -25.67578125 15.9140625 C-24.99068998 9.87356261 -22.07026874 4.92061874 -17.35546875 1.08984375 C-12.13175444 -2.03302894 -5.64771811 -2.18228577 0 0 Z " fill="#090909" transform="translate(327.35546875,233.91015625)"/>
<path d="M0 0 C0.87852127 -0.00511093 1.75704254 -0.01022186 2.66218567 -0.01548767 C5.56603816 -0.02938632 8.46965335 -0.02842654 11.37353516 -0.02612305 C13.39368783 -0.03001012 15.41383968 -0.03434481 17.43399048 -0.03910828 C21.66907398 -0.04657129 25.90407412 -0.04627882 30.13916016 -0.04101562 C35.56199892 -0.03522406 40.98449581 -0.05214414 46.40727806 -0.0753603 C50.58004751 -0.09010503 54.75273478 -0.09096827 58.92552567 -0.08785057 C60.92457379 -0.08836351 62.92362654 -0.09359618 64.92264938 -0.10366249 C67.72079301 -0.11602236 70.51827296 -0.1092376 73.31640625 -0.09765625 C74.55099831 -0.10912186 74.55099831 -0.10912186 75.81053162 -0.12081909 C82.15633805 -0.06287317 86.15178205 1.55671957 91.16259766 5.5871582 C94.43220828 9.78792007 93.90082258 14.89928813 93.71337891 19.98168945 C93.02132824 25.33397117 91.25919144 27.48790134 87.28759766 31.0871582 C82.8488198 33.72268255 78.23600181 33.4063708 73.20532227 33.37231445 C71.98736969 33.37012405 71.98736969 33.37012405 70.74481201 33.3678894 C68.98294911 33.3640872 67.22109002 33.35797462 65.45924187 33.349823 C62.66248181 33.33703262 59.86576937 33.3305359 57.06898499 33.32568359 C50.11680659 33.31232513 43.164673 33.28822698 36.21252441 33.26428223 C30.34534006 33.24445985 24.47817315 33.22885137 18.61096382 33.21871948 C15.87089532 33.21228951 13.13089907 33.19977703 10.39085388 33.18701172 C1.97018517 33.16265588 -6.34067696 33.2204767 -14.71240234 34.2746582 C-14.71240234 33.6146582 -14.71240234 32.9546582 -14.71240234 32.2746582 C-13.57802734 32.1302832 -12.44365234 31.9859082 -11.27490234 31.8371582 C-7.90463033 31.66294343 -7.90463033 31.66294343 -6.71240234 30.2746582 C-3.90350424 30.17070995 -1.118389 30.13104628 1.69116211 30.1328125 C2.57245789 30.12933807 3.45375366 30.12586365 4.36175537 30.12228394 C6.28246233 30.11491252 8.20317788 30.10957456 10.12389565 30.10599327 C13.16219185 30.09885036 16.20032441 30.08320017 19.23857117 30.06465149 C27.87948353 30.01208 36.52030812 29.96419374 45.16137695 29.94873047 C50.44059594 29.93866186 55.7194067 29.90936354 60.99846458 29.86741066 C63.01308291 29.85507725 65.02775886 29.84998365 67.04241371 29.85220909 C69.86067023 29.85455594 72.67775162 29.83244208 75.49584961 29.8046875 C76.33081467 29.81128891 77.16577972 29.81789032 78.02604675 29.82469177 C81.64307806 29.76610602 83.82695459 29.61650806 86.77458191 27.42903137 C88.45175442 25.25960091 88.45175442 25.25960091 89.28759766 22.2746582 C90.27759766 21.7796582 90.27759766 21.7796582 91.28759766 21.2746582 C91.22729799 19.35712867 91.13843059 17.44048395 91.03759766 15.5246582 C90.99119141 14.45731445 90.94478516 13.3899707 90.89697266 12.2902832 C90.16512215 8.66856146 89.15873649 7.53491644 86.28759766 5.2746582 C82.81439062 3.10744739 79.89942666 2.97049188 75.84228516 2.8605957 C75.1835994 2.84118423 74.52491364 2.82177277 73.8462677 2.80177307 C71.61851101 2.74036744 69.39074675 2.6944435 67.16259766 2.6496582 C66.39001617 2.63097687 65.61743469 2.61229553 64.82144165 2.5930481 C38.98556045 1.96910959 13.12880569 2.18561812 -12.71240234 2.2746582 C-8.78603501 -0.37668734 -4.54941614 -0.01362673 0 0 Z " fill="#424242" transform="translate(242.71240234375,122.725341796875)"/>
<path d="M0 0 C0.82862045 0.00359528 1.65724091 0.00719055 2.51097107 0.01089478 C3.81329178 0.01067574 3.81329178 0.01067574 5.141922 0.01045227 C8.02594967 0.01115171 10.9099136 0.01894554 13.79393005 0.02676392 C15.78790247 0.02862799 17.78187535 0.03005194 19.77584839 0.03105164 C25.03498082 0.03487769 30.29408583 0.04470871 35.5532074 0.05575562 C40.91534555 0.06596786 46.27748811 0.07054885 51.63963318 0.07559204 C62.16894213 0.0863309 72.69823069 0.10340837 83.2275238 0.12442017 C83.2275238 0.45442017 83.2275238 0.78442017 83.2275238 1.12442017 C81.97092957 1.14947632 80.71433533 1.17453247 79.41966248 1.2003479 C74.76233023 1.29444312 70.10514639 1.39465876 65.44798279 1.49673462 C63.43141651 1.54007545 61.41481374 1.58175115 59.3981781 1.62173462 C56.50133763 1.67945764 53.60468074 1.74314638 50.70799255 1.80801392 C49.35317024 1.83308266 49.35317024 1.83308266 47.97097778 1.85865784 C46.7100103 1.88857567 46.7100103 1.88857567 45.42356873 1.9190979 C44.31437325 1.94241432 44.31437325 1.94241432 43.18276978 1.96620178 C41.01235671 2.06354242 41.01235671 2.06354242 38.2275238 3.12442017 C35.2608925 3.19814361 32.31834159 3.21598298 29.3525238 3.18692017 C28.47281921 3.18313354 27.59311462 3.17934692 26.68675232 3.17544556 C22.92766045 3.15915228 19.1686779 3.13126967 15.40965271 3.10391235 C0.78884983 2.94516927 0.78884983 2.94516927 -13.7724762 4.12442017 C-13.7724762 3.46442017 -13.7724762 2.80442017 -13.7724762 2.12442017 C-12.6381012 1.98004517 -11.5037262 1.83567017 -10.3349762 1.68692017 C-6.47868043 1.07803136 -4.09951204 0.00751159 0 0 Z " fill="#2E2E2E" transform="translate(241.77247619628906,152.87557983398438)"/>
<path d="M0 0 C10.16207617 -0.09286877 20.32405061 -0.1638505 30.48646545 -0.20724869 C35.20581095 -0.22808256 39.92486511 -0.25632305 44.64404297 -0.30175781 C49.20225876 -0.34536595 53.76019514 -0.36916868 58.31860352 -0.37950897 C60.05367427 -0.38687356 61.78873053 -0.40125483 63.52368164 -0.42292023 C65.96273291 -0.45215412 68.40064419 -0.45594781 70.83984375 -0.45410156 C71.90476295 -0.47567322 71.90476295 -0.47567322 72.99119568 -0.49768066 C78.51827298 -0.45270389 82.34681837 1.26799612 87 4 C87 4.66 87 5.32 87 6 C84.69 5.34 82.38 4.68 80 4 C80 3.34 80 2.68 80 2 C53.6 1.67 27.2 1.34 0 1 C0 0.67 0 0.34 0 0 Z " fill="#6C6C6D" transform="translate(245,348)"/>
<path d="M0 0 C0.66 0 1.32 0 2 0 C2.12540433 7.27345111 2.12540433 7.27345111 1.5078125 10.8515625 C-0.41649571 22.78227338 1.47589163 35.12011956 3 47 C0 45 0 45 -0.73046875 42.69921875 C-2.83590095 28.82496041 -3.58595004 13.67143452 0 0 Z " fill="#323233" transform="translate(155,231)"/>
<path d="M0 0 C0.89203125 0.01804688 1.7840625 0.03609375 2.703125 0.0546875 C3.71632813 0.08949219 3.71632813 0.08949219 4.75 0.125 C4.75 0.455 4.75 0.785 4.75 1.125 C3.203125 1.24875 3.203125 1.24875 1.625 1.375 C-2.64539739 2.20152853 -4.84166464 3.4740725 -8.25 6.125 C-9.03375 6.681875 -9.8175 7.23875 -10.625 7.8125 C-13.15585973 11.41410808 -12.88248325 14.86292536 -12.25 19.125 C-11.3956246 21.54418251 -10.32421646 23.78974684 -9.25 26.125 C-9.58 27.115 -9.91 28.105 -10.25 29.125 C-14.62991107 24.74508893 -15.77524269 20.14182221 -16.25 14.125 C-15.34860639 8.91694804 -12.8181907 5.86310455 -9.25 2.125 C-6.09560728 0.12498079 -3.70070453 -0.09738696 0 0 Z " fill="#4E4C4D" transform="translate(367.25,140.875)"/>
<path d="M0 0 C0.66 0.33 1.32 0.66 2 1 C2.05001046 5.08931682 2.08600357 9.17851141 2.10986328 13.26806641 C2.11982603 14.65481676 2.13340118 16.04154665 2.15087891 17.42822266 C2.24983708 25.49040344 2.07347869 33.15724803 0 41 C-0.66 41 -1.32 41 -2 41 C-1.93433838 40.4652002 -1.86867676 39.93040039 -1.80102539 39.37939453 C-0.88709152 31.22700374 -0.6680008 23.06765701 -0.4375 14.875 C-0.39419844 13.42707378 -0.35058094 11.97915698 -0.30664062 10.53125 C-0.20078894 7.02093422 -0.09919761 3.51051087 0 0 Z " fill="#575757" transform="translate(401,238)"/>
<path d="M0 0 C0.33 0 0.66 0 1 0 C2.91721334 7.25041392 3.30398648 13.9558742 3.25 21.4375 C3.25773437 22.50548828 3.26546875 23.57347656 3.2734375 24.67382812 C3.25713085 31.34732291 2.59194699 37.51707692 1 44 C0.67 44 0.34 44 0 44 C0 29.48 0 14.96 0 0 Z " fill="#535353" transform="translate(380,231)"/>
<path d="M0 0 C0.33 0 0.66 0 1 0 C1.02689216 1.47906892 1.04634621 2.95827483 1.0625 4.4375 C1.07410156 5.26121094 1.08570312 6.08492187 1.09765625 6.93359375 C1 9 1 9 0 10 C-0.10081087 12.35231699 -0.13972939 14.67461947 -0.1328125 17.02734375 C-0.13376923 17.73145889 -0.13472595 18.43557404 -0.13571167 19.161026 C-0.13639341 20.65316863 -0.13453952 22.14531421 -0.13037109 23.63745117 C-0.12503063 25.92438418 -0.1303121 28.21112008 -0.13671875 30.49804688 C-0.13605781 31.94531293 -0.13477632 33.39257887 -0.1328125 34.83984375 C-0.13483673 35.52634506 -0.13686096 36.21284637 -0.13894653 36.92015076 C-0.16653259 40.58336824 -0.16653259 40.58336824 1 44 C1.07065617 46.04055005 1.08421976 48.08334257 1.0625 50.125 C1.05347656 51.22070312 1.04445313 52.31640625 1.03515625 53.4453125 C1.02355469 54.28835938 1.01195313 55.13140625 1 56 C0.67 56 0.34 56 0 56 C-2.23540609 47.28014211 -2.30657422 38.87177449 -2.26074219 29.93188477 C-2.25000805 27.43936928 -2.26069193 24.94757194 -2.2734375 22.45507812 C-2.27211594 20.84374844 -2.26955362 19.23241919 -2.265625 17.62109375 C-2.26967346 16.88958603 -2.27372192 16.15807831 -2.27789307 15.40440369 C-2.2303302 10.06433261 -1.32796926 5.16616011 0 0 Z " fill="#7B7B7C" transform="translate(125,224)"/>
<path d="M0 0 C0.99 0.33 1.98 0.66 3 1 C-5.14347645 7.89819635 -10.74667558 12.29524418 -21.66796875 12.3984375 C-24 12 -24 12 -28 9 C-22.06 9 -16.12 9 -10 9 C-9.34 7.68 -8.68 6.36 -8 5 C-7.01 5 -6.02 5 -5 5 C-5 4.34 -5 3.68 -5 3 C-3.35 2.67 -1.7 2.34 0 2 C0 1.34 0 0.68 0 0 Z " fill="#484848" transform="translate(357,308)"/>
<path d="M0 0 C0.66 0 1.32 0 2 0 C0.42361703 6.09534747 -2.00147545 10.99059836 -5.375 16.25 C-5.75003662 16.83990723 -6.12507324 17.42981445 -6.51147461 18.03759766 C-9.01298422 21.83954849 -11.70642851 24.90427556 -15 28 C-14.67 26.35 -14.34 24.7 -14 23 C-13.34 23 -12.68 23 -12 23 C-12 22.34 -12 21.68 -12 21 C-11.34 21 -10.68 21 -10 21 C-9.896875 20.46375 -9.79375 19.9275 -9.6875 19.375 C-8.81907303 16.37497956 -7.44379704 13.7620465 -6 11 C-5.34 11 -4.68 11 -4 11 C-4 10.01 -4 9.02 -4 8 C-3.34 8 -2.68 8 -2 8 C-2 6.35 -2 4.7 -2 3 C-1.34 3 -0.68 3 0 3 C0 2.01 0 1.02 0 0 Z " fill="#4A4A4A" transform="translate(419,306)"/>
<path d="M0 0 C3.84121753 1.50904974 5.73197188 3.57921379 8 7 C8.91663575 12.76267331 9.424902 19.72618489 6.125 24.8125 C4 27 4 27 2 28 C2.52268466 25.23723823 3.10869587 22.6739124 4 20 C4.66 19.67 5.32 19.34 6 19 C6.10511347 10.56363284 6.10511347 10.56363284 2.4375 3.3125 C1.633125 2.549375 0.82875 1.78625 0 1 C0 0.67 0 0.34 0 0 Z " fill="#474748" transform="translate(328,125)"/>
<path d="M0 0 C0.66 0.33 1.32 0.66 2 1 C1.34 2.32 0.68 3.64 0 5 C-0.66 5 -1.32 5 -2 5 C-2.268125 5.639375 -2.53625 6.27875 -2.8125 6.9375 C-4 9 -4 9 -7 10 C-7.10251672 15.12583611 -7.03590199 19.94997778 -6 25 C-8.78174197 23.06487515 -9.08415299 21.66899825 -9.9375 18.3125 C-10.36938262 13.4088327 -8.77175882 9.97367194 -6 6 C-4.10111988 3.82853125 -2.14104697 1.94640633 0 0 Z " fill="#505051" transform="translate(360,332)"/>
<path d="M0 0 C0.66 0.33 1.32 0.66 2 1 C0.21479439 3.00611734 -1.57758712 5.0048717 -3.375 7 C-3.88289063 7.57234375 -4.39078125 8.1446875 -4.9140625 8.734375 C-6.23504905 10.19441277 -7.61400799 11.60152157 -9 13 C-9.66 13 -10.32 13 -11 13 C-11 16.96 -11 20.92 -11 25 C-11.33 25 -11.66 25 -12 25 C-13.08863195 19.66570346 -13.07923469 16.06248446 -11 11 C-7.94529745 6.62956714 -4.29527155 3.15828791 0 0 Z " fill="#515151" transform="translate(338,289)"/>
<path d="M0 0 C0.33 0 0.66 0 1 0 C1 1.65 1 3.3 1 5 C0.34 5 -0.32 5 -1 5 C-1.28875 5.928125 -1.5775 6.85625 -1.875 7.8125 C-3 11 -3 11 -5 14 C-5.66 14 -6.32 14 -7 14 C-7 14.66 -7 15.32 -7 16 C-8.98 16.66 -10.96 17.32 -13 18 C-12.64808594 17.53851563 -12.29617188 17.07703125 -11.93359375 16.6015625 C-8.29252907 11.79117417 -4.81803988 6.89001872 -1.41796875 1.90625 C-0.95003906 1.2771875 -0.48210937 0.648125 0 0 Z " fill="#474747" transform="translate(389,301)"/>
<path d="M0 0 C0.99 0.2165625 0.99 0.2165625 2 0.4375 C6.99809914 1.37464359 11.90242022 2 17 2 C17 1.34 17 0.68 17 0 C18.65 0 20.3 0 22 0 C20.52533169 2.94933662 18.16573904 3.34824134 15.1875 4.390625 C10.44278793 5.71236622 7.05045073 5.4583785 2.5625 3.5 C1.716875 3.005 0.87125 2.51 0 2 C0 1.34 0 0.68 0 0 Z " fill="#424141" transform="translate(134,386)"/>
<path d="M0 0 C0.99 0.66 1.98 1.32 3 2 C2.26394531 2.06058594 1.52789062 2.12117187 0.76953125 2.18359375 C-0.69419922 2.30927734 -0.69419922 2.30927734 -2.1875 2.4375 C-3.15042969 2.51871094 -4.11335938 2.59992188 -5.10546875 2.68359375 C-7.78649602 2.97666151 -10.3662986 3.42703754 -13 4 C-13 4.66 -13 5.32 -13 6 C-13.66 6 -14.32 6 -15 6 C-15 6.99 -15 7.98 -15 9 C-15.66 9 -16.32 9 -17 9 C-16.67 7.68 -16.34 6.36 -16 5 C-15.34 5 -14.68 5 -14 5 C-14 4.34 -14 3.68 -14 3 C-8.8719623 -0.45357641 -6.25718789 -1.68462751 0 0 Z " fill="#5F5F5F" transform="translate(344,185)"/>
<path d="M0 0 C0.89203125 0.01804688 1.7840625 0.03609375 2.703125 0.0546875 C3.71632813 0.08949219 3.71632813 0.08949219 4.75 0.125 C4.75 0.455 4.75 0.785 4.75 1.125 C3.203125 1.24875 3.203125 1.24875 1.625 1.375 C-3.79710743 2.42444015 -7.57801329 5.04501477 -11.25 9.125 C-12.24 8.795 -13.23 8.465 -14.25 8.125 C-9.91971107 2.59185303 -7.37829706 -0.19416571 0 0 Z " fill="#414141" transform="translate(367.25,140.875)"/>
<path d="M0 0 C0.33 0.99 0.66 1.98 1 3 C-0.32 3.33 -1.64 3.66 -3 4 C-3.061875 4.5775 -3.12375 5.155 -3.1875 5.75 C-4.34573979 8.95743327 -6.21140558 10.11932004 -9 12 C-11.3125 12.75 -11.3125 12.75 -13 13 C-13 11 -13 11 -11.5390625 9.4921875 C-10.59160156 8.69167969 -10.59160156 8.69167969 -9.625 7.875 C-8.99851562 7.33617187 -8.37203125 6.79734375 -7.7265625 6.2421875 C-6 5 -6 5 -4 5 C-4 4.34 -4 3.68 -4 3 C-2 1.375 -2 1.375 0 0 Z " fill="#505050" transform="translate(375,319)"/>
<path d="M0 0 C6.76215448 0.40939975 12.67162748 1.56953809 19 4 C19 4.66 19 5.32 19 6 C12.16018724 5.48378772 6.36123316 3.51409031 0 1 C0 0.67 0 0.34 0 0 Z " fill="#4A4849" transform="translate(204,372)"/>
<path d="M0 0 C0.33 0 0.66 0 1 0 C1.06058594 0.78503906 1.12117188 1.57007813 1.18359375 2.37890625 C1.62820214 7.95361148 2.12124643 13.47640616 3 19 C-0.17295188 14.86136711 -1.13882867 12.75489395 -1.125 7.5 C-1.12757813 6.5203125 -1.13015625 5.540625 -1.1328125 4.53125 C-1 2 -1 2 0 0 Z " fill="#535353" transform="translate(303,245)"/>
<path d="M0 0 C5.09210286 3.56320845 9.22660027 7.04741286 13 12 C12.01 12.495 12.01 12.495 11 13 C11 12.34 11 11.68 11 11 C10.38125 10.690625 9.7625 10.38125 9.125 10.0625 C7.75 9.375 6.375 8.6875 5 8 C5 7.34 5 6.68 5 6 C4.01 5.67 3.02 5.34 2 5 C0.8125 2.4375 0.8125 2.4375 0 0 Z " fill="#5A5A5A" transform="translate(353,191)"/>
<path d="M0 0 C0.99 0.33 1.98 0.66 3 1 C2.67 1.66 2.34 2.32 2 3 C1.01 3 0.02 3 -1 3 C-1 3.66 -1 4.32 -1 5 C-4.1999003 8.01704885 -6.61537866 9.49890042 -11 10 C-7.5103248 6.40768729 -4.03355127 2.98132051 0 0 Z " fill="#494949" transform="translate(178,145)"/>
<path d="M0 0 C4.54075781 4.14010271 7.71842138 8.82390176 11 14 C7.50116255 12.41987986 6.69563342 11.39126684 5 8 C4.319375 7.71125 3.63875 7.4225 2.9375 7.125 C2.298125 6.75375 1.65875 6.3825 1 6 C0.25 2.875 0.25 2.875 0 0 Z " fill="#4D4D4D" transform="translate(170,306)"/>
<path d="M0 0 C1.86486195 2.79729293 3.50272475 5.61967702 5.125 8.5625 C5.66382813 9.53316406 6.20265625 10.50382812 6.7578125 11.50390625 C8 14 8 14 8 16 C7.34 16 6.68 16 6 16 C1.78869556 11.06713249 0.34134268 6.37173005 0 0 Z " fill="#414141" transform="translate(162,290)"/>
<path d="M0 0 C2.85431416 2.30040765 3.91221457 3.4463297 4.49609375 7.12890625 C4.46708984 8.82853516 4.46708984 8.82853516 4.4375 10.5625 C4.43621094 11.69816406 4.43492187 12.83382813 4.43359375 14.00390625 C4 17 4 17 2.47265625 18.90234375 C1.98667969 19.26457031 1.50070312 19.62679688 1 20 C1 18.68 1 17.36 1 16 C1.66 16 2.32 16 3 16 C2.52013969 10.43109483 1.70084819 5.32932432 0 0 Z " fill="#555556" transform="translate(332,354)"/>
<path d="M0 0 C0.33 0 0.66 0 1 0 C1.66 5.94 2.32 11.88 3 18 C2.01 17.34 1.02 16.68 0 16 C-0.22107787 13.2114711 -0.28107535 10.65346819 -0.1875 7.875 C-0.17396484 7.12089844 -0.16042969 6.36679687 -0.14648438 5.58984375 C-0.11109985 3.72625873 -0.05729167 1.86304022 0 0 Z " fill="#545454" transform="translate(155,260)"/>
<path d="M0 0 C0.33 0 0.66 0 1 0 C1.82200425 6.24723226 -1.07448606 10.71317837 -4 16 C-5.16161779 13.13421241 -4.9946154 11.98369837 -4.00390625 8.984375 C-3.52824219 7.91703125 -3.05257812 6.8496875 -2.5625 5.75 C-2.08941406 4.67234375 -1.61632812 3.5946875 -1.12890625 2.484375 C-0.75636719 1.66453125 -0.38382813 0.8446875 0 0 Z " fill="#666666" transform="translate(133,200)"/>
<path d="M0 0 C0.66 0.33 1.32 0.66 2 1 C1.38400666 11.939192 1.38400666 11.939192 -2 16 C-2.66 16 -3.32 16 -4 16 C-3.05250065 13.08982343 -2.10599506 10.2414332 -0.875 7.4375 C0.07117939 4.80171456 0.15876134 2.77832339 0 0 Z " fill="#4D4D4D" transform="translate(149,330)"/>
<path d="M0 0 C0.99 0 1.98 0 3 0 C1.6062718 4.43458973 -0.60582235 6.87378374 -4 10 C-4.33 8.68 -4.66 7.36 -5 6 C-4.01 5.67 -3.02 5.34 -2 5 C-2 4.34 -2 3.68 -2 3 C-1.34 3 -0.68 3 0 3 C0 2.01 0 1.02 0 0 Z " fill="#404040" transform="translate(370,292)"/>
<path d="M0 0 C1.9375 0.375 1.9375 0.375 4 1 C4.33 1.66 4.66 2.32 5 3 C7.3140622 3.73075648 9.64828869 4.40138258 12 5 C11.67 5.66 11.34 6.32 11 7 C7.98342209 6.85969405 5.76158727 6.70648535 3.48828125 4.59765625 C2.26743934 3.11095765 1.12753478 1.55865102 0 0 Z " fill="#474747" transform="translate(306,264)"/>
<path d="M0 0 C1.37095624 3.69037278 0.60010967 5.70883835 -0.9375 9.25 C-1.31777344 10.14203125 -1.69804687 11.0340625 -2.08984375 11.953125 C-2.39019531 12.62859375 -2.69054687 13.3040625 -3 14 C-3.66 14 -4.32 14 -5 14 C-4.34580901 8.93001981 -2.1453591 4.58009223 0 0 Z " fill="#565656" transform="translate(143,348)"/>
<path d="M0 0 C0.33 0 0.66 0 1 0 C1 1.65 1 3.3 1 5 C0.34 5 -0.32 5 -1 5 C-1.33 5.99 -1.66 6.98 -2 8 C-2.66 8 -3.32 8 -4 8 C-4.33 8.99 -4.66 9.98 -5 11 C-5.66 10.67 -6.32 10.34 -7 10 C-5.85821872 8.33055479 -4.71147095 6.6645052 -3.5625 5 C-2.92441406 4.071875 -2.28632813 3.14375 -1.62890625 2.1875 C-1.09136719 1.465625 -0.55382812 0.74375 0 0 Z " fill="#6A6A6A" transform="translate(389,301)"/>
<path d="M0 0 C4.30764815 1.56641751 8.06171464 3.68336156 12 6 C10.68 6.33 9.36 6.66 8 7 C8 6.34 8 5.68 8 5 C6.865625 4.731875 5.73125 4.46375 4.5625 4.1875 C3.386875 3.795625 2.21125 3.40375 1 3 C0.67 2.01 0.34 1.02 0 0 Z " fill="#626262" transform="translate(196,333)"/>
<path d="M0 0 C0.66 0.33 1.32 0.66 2 1 C1.67 2.32 1.34 3.64 1 5 C0.01 5 -0.98 5 -2 5 C-4.18777466 6.9375006 -4.18777466 6.9375006 -6 9 C-4.68775452 5.06326356 -3.08089673 2.77280706 0 0 Z " fill="#636363" transform="translate(310,235)"/>
<path d="M0 0 C2 1 2 1 3.125 3.1875 C4.08328236 6.26769331 4.14915816 8.79309948 4 12 C1.49484216 9.49484216 0.94900914 7.38931835 0 4 C0 2.68 0 1.36 0 0 Z " fill="#4D4D4D" transform="translate(128,288)"/>
<path d="M0 0 C3 1 3 1 4.1875 2.625 C5.27499354 5.80382728 5.1282071 8.66661533 5 12 C4 10 4 10 3 8 C2.195625 6.453125 2.195625 6.453125 1.375 4.875 C0 2 0 2 0 0 Z " fill="#404041" transform="translate(391,206)"/>
<path d="M0 0 C1.32 0.33 2.64 0.66 4 1 C4 1.66 4 2.32 4 3 C5.32 3.33 6.64 3.66 8 4 C8.33 5.65 8.66 7.3 9 9 C7.87105124 8.06725891 6.74699124 7.12859878 5.625 6.1875 C4.99851562 5.66542969 4.37203125 5.14335937 3.7265625 4.60546875 C2 3 2 3 0 0 Z " fill="#565556" transform="translate(358,170)"/>
<path d="M0 0 C3.55780196 0.60990891 6.6828589 1.5783681 10 3 C10 3.33 10 3.66 10 4 C6.05272412 4.17942163 3.4019487 4.09350689 0 2 C0 1.34 0 0.68 0 0 Z " fill="#424242" transform="translate(210,341)"/>
<path d="M0 0 C0.33 0.99 0.66 1.98 1 3 C-0.375 4.5 -0.375 4.5 -2 6 C-2.66 6 -3.32 6 -4 6 C-4.33 6.99 -4.66 7.98 -5 9 C-5.66 8.67 -6.32 8.34 -7 8 C-4.69 5.36 -2.38 2.72 0 0 Z " fill="#5B5B5B" transform="translate(156,165)"/>
<path d="M0 0 C3.36720387 1.39332574 4.9859524 2.9789286 7 6 C2.25 5.25 2.25 5.25 0 3 C0 2.01 0 1.02 0 0 Z " fill="#626262" transform="translate(386,153)"/>
<path d="M0 0 C0.33 0 0.66 0 1 0 C0.14285714 8.57142857 0.14285714 8.57142857 -2 12 C-2.28571429 3.42857143 -2.28571429 3.42857143 0 0 Z " fill="#6F6F6F" transform="translate(427,284)"/>
<path d="M0 0 C2.875 0.6875 2.875 0.6875 6 2 C7.375 4.625 7.375 4.625 8 7 C4.63718422 5.55879324 2.4480582 3.71035015 0 1 C0 0.67 0 0.34 0 0 Z " fill="#515151" transform="translate(329,208)"/>
<path d="M0 0 C2.5 1.375 2.5 1.375 5 3 C5 3.66 5 4.32 5 5 C5.66 5 6.32 5 7 5 C7 5.66 7 6.32 7 7 C5.68 6.67 4.36 6.34 3 6 C3 5.34 3 4.68 3 4 C2.01 3.67 1.02 3.34 0 3 C0 2.01 0 1.02 0 0 Z " fill="#4E4E4E" transform="translate(379,146)"/>
<path d="M0 0 C0.33 0 0.66 0 1 0 C1 1.98 1 3.96 1 6 C-0.98 6.99 -0.98 6.99 -3 8 C-1.125 1.125 -1.125 1.125 0 0 Z " fill="#3F3F3F" transform="translate(137,362)"/>
<path d="M0 0 C0.99 0.33 1.98 0.66 3 1 C1.37660195 2.70884005 -0.29319053 4.37446717 -2 6 C-2.66 6 -3.32 6 -4 6 C-4 5.01 -4 4.02 -4 3 C-2.68 2.67 -1.36 2.34 0 2 C0 1.34 0 0.68 0 0 Z " fill="#393939" transform="translate(332,263)"/>
<path d="M0 0 C-0.625 1.9375 -0.625 1.9375 -2 4 C-5.125 4.75 -5.125 4.75 -8 5 C-3.16129032 0 -3.16129032 0 0 0 Z " fill="#505050" transform="translate(188,140)"/>
</svg>
